<svg xmlns="http://www.w3.org/2000/svg" viewBox="0 0 512 512" width="100%" height="100%" preserveAspectRatio="xMidYMid meet"><rect width="512" height="512" rx="0" fill="#003554"/><g transform="translate(256 256) scale(1.2687) translate(-145.50 120.15)"><g transform="translate(0.00 0)"><path d="M146.10-108Q164.40-104.10 175.50-89.85Q186.60-75.60 186.60-57.30Q186.60-30.90 168.15-15.45Q149.70 0 116.70 0L18.60 0L18.60-210.60L113.40-210.60Q145.50-210.60 163.65-195.90Q181.80-181.20 181.80-156Q181.80-137.40 172.05-125.10Q162.30-112.80 146.10-108M69.90-169.50L69.90-125.40L103.50-125.40Q116.10-125.40 122.85-130.95Q129.60-136.50 129.60-147.30Q129.60-158.10 122.85-163.80Q116.10-169.50 103.50-169.50L69.90-169.50M107.70-41.40Q120.60-41.40 127.65-47.25Q134.70-53.10 134.70-64.20Q134.70-75.30 127.35-81.60Q120-87.90 107.10-87.90L69.90-87.90L69.90-41.40" fill="#ffffff"/></g><g transform="translate(197.70 0)"><path d="M44.40-184.80Q30.90-184.80 22.35-192.75Q13.80-200.70 13.80-212.40Q13.80-224.40 22.35-232.35Q30.90-240.30 44.40-240.30Q57.60-240.30 66.15-232.35Q74.70-224.40 74.70-212.40Q74.70-200.70 66.15-192.75Q57.60-184.80 44.40-184.80M18.60-167.40L69.90-167.40L69.90 0L18.60 0" fill="#ffffff"/></g></g></svg>