<svg xmlns="http://www.w3.org/2000/svg" viewBox="0 0 512 512" width="100%" height="100%" preserveAspectRatio="xMidYMid meet"><rect width="512" height="512" rx="140" fill="#003554"/><g transform="translate(112 365.80)"><path d="M69.90-143.70Q77.10-155.40 90.60-162.60Q104.10-169.80 121.50-169.80Q142.20-169.80 159-159.30Q175.80-148.80 185.55-129.30Q195.30-109.80 195.30-84Q195.30-58.20 185.55-38.55Q175.80-18.90 159-8.25Q142.20 2.40 121.50 2.40Q103.80 2.40 90.60-4.65Q77.40-11.70 69.90-23.40L69.90 0L18.60 0L18.60-222L69.90-222L69.90-143.70M143.10-84Q143.10-103.20 132.45-114.15Q121.80-125.10 106.20-125.10Q90.90-125.10 80.25-114Q69.60-102.90 69.60-83.70Q69.60-64.50 80.25-53.40Q90.90-42.30 106.20-42.30Q121.50-42.30 132.30-53.55Q143.10-64.80 143.10-84" fill="#ffffff"/></g><rect x="332" y="244" width="52" height="124" rx="26" fill="#ffffff"/><circle cx="358" cy="205" r="30" fill="#ff5747"/></svg>